<svg width="51" height="106" viewBox="0 0 51 106" fill="none" xmlns="http://www.w3.org/2000/svg">
<path d="M25.5 106L25.5 0.512452" stroke="url(#paint0_linear_160_19198)" stroke-width="1.47736"/>
<path d="M25.5862 0.512446C26.7217 0.512446 28.527 4.00634 28.527 8.4902L28.527 16.7882L32.1956 19.0593L32.1956 18.7682C32.1956 18.7682 32.312 18.5352 32.4285 18.5352L35.2237 18.5352C35.2237 18.5352 35.4566 18.6518 35.4566 18.7682L35.4566 21.0683L39.0669 23.3103L39.0669 22.7571C39.0669 22.7571 39.1835 22.5241 39.2999 22.5241L42.095 22.5241C42.095 22.5241 42.3279 22.6406 42.3279 22.7571L42.3279 25.3483L49.7817 29.9778C50.0146 30.1234 50.1893 30.4145 50.1893 30.7057L50.1893 32.6856C50.1893 32.8894 49.9854 33.035 49.8107 32.9477L38.6884 28.9297L38.6884 29.2208C38.6884 29.2208 38.6884 29.3955 38.6302 29.4537C38.572 29.512 38.5429 29.5701 38.4847 29.5701C38.3682 29.5701 38.2808 29.3955 38.2808 29.2208L38.2808 28.7841L34.3793 27.3864L32.6615 27.3864L32.6615 27.8232C32.6615 27.8232 32.6614 27.998 32.6032 28.0562C32.5741 28.1145 32.5159 28.1726 32.4576 28.1726C32.3412 28.1726 32.2538 27.9979 32.2538 27.8232L32.2538 27.3864L28.4688 27.3864L28.4688 30.6766C28.4688 32.9476 28.3814 34.8985 28.2067 36.5872L35.1946 41.304C35.1946 41.304 35.3692 41.5077 35.3692 41.6242L35.3692 42.8179C35.3692 43.0799 35.1363 43.2546 34.9034 43.1964L31.2347 42.4393L31.2347 42.7015C31.2347 42.7015 31.2348 42.8762 31.1765 42.9344C31.1474 42.9927 31.0892 43.0508 31.031 43.0508C30.9145 43.0508 30.8272 42.8762 30.8272 42.7015L30.8272 42.3521L28.2649 41.7989L28.2649 42.09C28.2649 42.09 28.265 42.2647 28.2067 42.3229C28.1776 42.3812 28.1193 42.4393 28.0611 42.4393C27.9446 42.4393 27.8574 42.2647 27.8574 42.09L27.8574 41.7114L27.3332 41.595C26.8673 43.4585 26.3724 44.594 25.9939 45.2637L25.9939 47.4765C25.9939 47.9424 25.7609 48.35 25.4989 48.35C25.3533 48.35 25.2369 48.2334 25.1495 48.0879C25.0622 47.9132 25.004 47.7095 25.004 47.4765L25.004 45.2637C24.6255 44.594 24.1305 43.4585 23.6647 41.595L23.1405 41.7114L23.1405 42.09C23.1405 42.2647 23.0532 42.4393 22.9368 42.4393C22.8785 42.4393 22.8494 42.4103 22.7911 42.3229C22.762 42.2647 22.7329 42.1773 22.7329 42.09L22.7329 41.7989L20.1707 42.3521L20.1707 42.7015C20.1707 42.8762 20.0833 43.0508 19.9669 43.0508C19.9086 43.0508 19.8796 43.0218 19.8213 42.9344C19.7922 42.8762 19.763 42.7888 19.763 42.7015L19.763 42.4393L16.0945 43.1964C15.8616 43.2546 15.6286 43.0508 15.6286 42.8179L15.6286 41.6242C15.6286 41.6242 15.6868 41.3622 15.8033 41.304L22.7911 36.5872C22.6164 34.8985 22.5291 32.9476 22.5291 30.6766L22.5291 27.3864L18.744 27.3864L18.744 27.8232C18.744 27.9979 18.6567 28.1726 18.5402 28.1726C18.482 28.1726 18.4529 28.1436 18.3947 28.0562C18.3656 27.998 18.3364 27.9106 18.3364 27.8232L18.3364 27.3864L16.6185 27.3864L12.717 28.7841L12.717 29.2208C12.717 29.3955 12.6296 29.5701 12.5132 29.5701C12.455 29.5701 12.3968 29.5411 12.3676 29.4537C12.3385 29.3664 12.3094 29.3081 12.3094 29.2208L12.3094 28.9297L1.18711 32.9477C0.983303 33.0059 0.808593 32.8894 0.808593 32.6856L0.808593 30.7057C0.808593 30.4145 0.954127 30.1525 1.21617 29.9778L8.66985 25.3483L8.66985 22.7571C8.66985 22.7571 8.78637 22.5241 8.90283 22.5241L11.6979 22.5241C11.6979 22.5241 11.9309 22.6406 11.9309 22.7571L11.9309 23.3103L15.5413 21.0683L15.5413 18.7682C15.5413 18.7682 15.6577 18.5352 15.7742 18.5352L18.5694 18.5352C18.5694 18.5352 18.8022 18.6518 18.8022 18.7682L18.8022 19.0593L22.4709 16.7882L22.4709 8.4902C22.4709 4.00634 24.2469 0.512446 25.4115 0.512446L25.5862 0.512446Z" fill="#CBA44F"/>
<defs>
<linearGradient id="paint0_linear_160_19198" x1="26" y1="106" x2="26" y2="0.512451" gradientUnits="userSpaceOnUse">
<stop stop-color="white" stop-opacity="0"/>
<stop offset="0.668382" stop-color="#CBA44F"/>
</linearGradient>
</defs>
</svg>
