<svg width="21" height="20" viewBox="0 0 21 20" fill="none" xmlns="http://www.w3.org/2000/svg">
<path d="M9.3563 5.90254L6.2638 2.81088L6.6288 2.44921C7.10047 1.97754 7.92464 1.97754 8.3963 2.44921L9.71797 3.77088C9.95464 4.00754 10.0846 4.32171 10.0846 4.65504C10.0846 4.98838 9.95464 5.30254 9.71964 5.53838L9.3563 5.90254ZM14.963 10.7825C15.4346 10.3109 16.2588 10.3109 16.7305 10.7825L18.0521 12.1042C18.288 12.3409 18.418 12.655 18.418 12.9884C18.418 13.3217 18.288 13.6359 18.0505 13.8734L17.6863 14.2334L14.6005 11.1475L14.963 10.7825ZM5.13714 3.94088L5.43214 3.64588L8.52214 6.73588L7.98047 7.27671C7.94167 7.31541 7.91088 7.36139 7.88988 7.41201C7.86887 7.46264 7.85806 7.5169 7.85806 7.57171C7.85806 7.62652 7.86887 7.68078 7.88988 7.7314C7.91088 7.78202 7.94167 7.828 7.98047 7.86671L12.6355 12.5217C12.7149 12.5973 12.8204 12.6394 12.9301 12.6394C13.0397 12.6394 13.1452 12.5973 13.2246 12.5217L13.7663 11.98L16.8513 15.0717L16.5563 15.3667C16.3396 15.5834 15.518 16.2875 14.0096 16.2875C12.663 16.2875 10.463 15.6942 7.63464 12.8667C1.99047 7.22088 5.00297 4.07504 5.13714 3.94088Z" fill="white"/>
</svg>
