<svg width="45" height="31" viewBox="0 0 45 31" fill="none" xmlns="http://www.w3.org/2000/svg">
<path d="M0.569824 19.3438C0.569824 15.4104 0.769824 12.3437 1.16982 10.1437C1.63649 7.87708 2.46982 6.07708 3.66982 4.74375C4.93649 3.34375 6.83649 2.34375 9.36983 1.74375C11.9032 1.14375 15.3032 0.84375 19.5698 0.84375V7.74375C16.5032 7.74375 14.5032 8.21042 13.5698 9.14375C13.1032 9.61041 12.7698 10.2771 12.5698 11.1437C12.4365 11.9438 12.3698 13.0104 12.3698 14.3437V15.6438H19.5698V30.9438H0.569824V19.3438ZM25.0698 19.3438C25.0698 15.4104 25.2698 12.3437 25.6698 10.1437C26.1365 7.87708 26.9698 6.07708 28.1698 4.74375C29.4365 3.34375 31.3365 2.34375 33.8698 1.74375C36.4032 1.14375 39.8032 0.84375 44.0698 0.84375V7.74375C41.0032 7.74375 39.0032 8.21042 38.0698 9.14375C37.6032 9.61041 37.2698 10.2771 37.0698 11.1437C36.9365 11.9438 36.8698 13.0104 36.8698 14.3437V15.6438H44.0698V30.9438H25.0698V19.3438Z" fill="#D1D4D9"/>
</svg>
