<svg width="22" height="20" viewBox="0 0 22 20" fill="none" xmlns="http://www.w3.org/2000/svg">
<g clip-path="url(#clip0_294_4286)">
<path d="M18.4391 2.90641C16.465 1.03328 13.84 0.00114284 11.0433 0C5.28012 0 0.590087 4.44562 0.587779 9.90993C0.587108 11.6566 1.06843 13.3616 1.9833 14.8646L0.5 20L6.04257 18.622C7.56965 19.4116 9.28904 19.8277 11.0388 19.8284H11.0432H11.0433C16.8055 19.8284 21.4962 15.382 21.4986 9.91796C21.4996 7.2697 20.413 4.77968 18.4391 2.90641ZM11.0433 18.1546H11.0399C9.48025 18.1538 7.95085 17.7568 6.61683 17.0062L6.29936 16.8278L3.01029 17.6454L3.88843 14.6059L3.68158 14.2942C2.81162 12.9827 2.35235 11.4669 2.35301 9.91057C2.35492 5.36881 6.2531 1.67389 11.0465 1.67389C13.3678 1.6748 15.5495 2.53272 17.1903 4.08961C18.831 5.64649 19.7339 7.71614 19.7333 9.91726C19.7312 14.4592 15.8329 18.1546 11.0433 18.1546Z" fill="#E0E0E0"/>
<path d="M0.980469 19.4302L2.39601 14.5294C1.52271 13.0951 1.06346 11.4678 1.06401 9.80126C1.0663 4.58666 5.54214 0.344238 11.0415 0.344238C13.7107 0.345381 16.2158 1.33032 18.0993 3.11793C19.9833 4.90553 21.0201 7.28165 21.019 9.80865C21.0168 15.0234 16.5406 19.2662 11.0419 19.2662C11.0415 19.2662 11.0422 19.2662 11.0419 19.2662H11.0375C9.3677 19.2657 7.72698 18.8682 6.26975 18.1152L0.980469 19.4302Z" fill="url(#paint0_linear_294_4286)"/>
<path fill-rule="evenodd" clip-rule="evenodd" d="M8.46154 5.70264C8.26811 5.29485 8.06445 5.28669 7.88042 5.27955C7.7299 5.27343 7.55758 5.27381 7.38553 5.27381C7.21335 5.27381 6.93355 5.33516 6.69693 5.58019C6.46018 5.82521 5.79297 6.41755 5.79297 7.62225C5.79297 8.82708 6.71846 9.99123 6.84746 10.1547C6.9766 10.318 8.634 12.8693 11.2589 13.8507C13.4403 14.6664 13.8843 14.5042 14.3578 14.4634C14.8313 14.4225 15.8856 13.8711 16.1009 13.2993C16.3161 12.7277 16.3161 12.2376 16.2515 12.1352C16.187 12.0331 16.0148 11.9719 15.7565 11.8495C15.4982 11.727 14.2286 11.1346 13.9919 11.0529C13.7551 10.9713 13.5829 10.9305 13.4108 11.1756C13.2386 11.4205 12.7439 11.9719 12.5933 12.1352C12.4426 12.2988 12.292 12.3192 12.0337 12.1968C11.7754 12.074 10.9437 11.8157 9.957 10.9815C9.1893 10.3325 8.67099 9.53099 8.52033 9.28585C8.36967 9.04096 8.50418 8.90831 8.63373 8.78624C8.74968 8.67654 8.892 8.50039 9.02114 8.35741C9.15 8.21442 9.19305 8.11238 9.27914 7.94912C9.36523 7.7856 9.32219 7.64263 9.25762 7.52018C9.19305 7.39773 8.69117 6.18681 8.46154 5.70264Z" fill="white"/>
<path d="M18.3543 2.87489C16.4028 1.02325 13.808 0.00299022 11.0433 0.00183105C5.34634 0.00183105 0.710147 4.39642 0.707857 9.798C0.707186 11.5247 1.18298 13.2101 2.08734 14.6958L0.621094 19.7722L6.10004 18.41C7.60961 19.1906 9.30925 19.602 11.0389 19.6026H11.0433H11.0433C16.7394 19.6026 21.3762 15.2072 21.3787 9.8059C21.3796 7.18809 20.3055 4.72665 18.3543 2.87489ZM11.0433 17.948H11.04C9.49826 17.9473 7.9864 17.5548 6.66771 16.8128L6.35387 16.6364L3.10256 17.4447L3.97061 14.44L3.76614 14.132C2.90616 12.8355 2.45217 11.3371 2.45284 9.79865C2.45472 5.30904 6.30814 1.65654 11.0466 1.65654C13.3412 1.65743 15.4978 2.5055 17.1198 4.04452C18.7417 5.58354 19.6342 7.62942 19.6336 9.80529C19.6315 14.295 15.778 17.948 11.0433 17.948Z" fill="white"/>
</g>
<defs>
<linearGradient id="paint0_linear_294_4286" x1="10.9998" y1="19.4302" x2="10.9998" y2="0.34427" gradientUnits="userSpaceOnUse">
<stop stop-color="#20B038"/>
<stop offset="1" stop-color="#60D66A"/>
</linearGradient>
<clipPath id="clip0_294_4286">
<rect width="21" height="20" fill="white" transform="translate(0.5)"/>
</clipPath>
</defs>
</svg>
