<svg width="88" height="62" viewBox="0 0 88 62" fill="none" xmlns="http://www.w3.org/2000/svg">
<g clip-path="url(#clip0_160_23761)">
<path d="M58.4994 30.1493C50.4949 25.8765 42.8305 21.9483 34.9961 17.847V42.3821C43.2403 37.9054 51.93 33.8057 58.5334 30.1493H58.4994Z" fill="white"/>
<path d="M58.4994 30.1493C50.4949 25.8765 34.9961 17.847 34.9961 17.847L55.6601 31.7203C55.6601 31.7203 51.8959 33.8057 58.4994 30.1493Z" fill="#E8E0E0"/>
<path d="M36.5038 61.5878C19.8777 61.282 14.1991 61.007 10.7086 60.2887C8.34713 59.8114 6.29498 58.7517 4.79029 57.2147C3.62735 56.0515 2.70251 54.2766 1.98498 51.8142C1.3695 49.7628 1.12979 48.0559 0.788033 43.8866C0.264873 34.4771 0.140157 26.7841 0.788033 18.1883C1.32253 13.4415 1.58168 7.80643 5.13204 4.5189C6.80842 2.98031 8.75853 1.99017 10.9483 1.58084C14.3691 0.932076 28.9431 0.419209 44.0305 0.419209C59.0839 0.419209 73.6903 0.932076 77.1143 1.58084C79.85 2.09371 82.4155 3.63069 83.9219 5.61259C87.1612 10.7024 87.2179 17.0315 87.5467 21.9822C87.6828 24.3411 87.6828 37.7355 87.5467 40.0944C87.0349 47.9184 86.6235 50.6866 85.4606 53.5567C84.7414 55.3687 84.1276 56.3249 83.065 57.3846C81.3986 59.0153 79.2743 60.1 76.975 60.4941C62.5873 61.5749 50.37 61.8095 36.5038 61.5878ZM58.5365 30.1493C50.5319 25.8765 42.8676 21.9143 35.0331 17.813V42.3497C43.2774 37.873 51.9686 33.7717 58.5705 30.1153L58.5365 30.1493Z" fill="#CD201F"/>
</g>
<defs>
<clipPath id="clip0_160_23761">
<rect width="87.3013" height="61.2517" fill="white" transform="translate(0.347656 0.415771)"/>
</clipPath>
</defs>
</svg>
